<svg xmlns="http://www.w3.org/2000/svg" xmlns:xlink="http://www.w3.org/1999/xlink" width="400px" height="105px" viewBox="0 0 400 105" version="1.1" style="background-color: #ababab;">
    <title>6BB8E4FC-F291-4DC7-AE69-E7DE4DA8CBA4</title>
    <g id="Logos" stroke="none" stroke-width="1" fill="none" fill-rule="evenodd">
        <g id="logo/notch/knockout" fill="#9400ff">
            <path d="M127.551167,28.1290075 C151.147466,28.1290075 168.603587,43.99481 168.603587,66.5645037 C168.603587,89.136402 151.147466,105 127.551167,105 C103.954868,105 86.4987472,89.136402 86.4987472,66.5645037 C86.4987472,43.99481 103.954868,28.1290075 127.551167,28.1290075 Z M277.509262,28.1301097 C295.824349,28.1301097 307.99047,36.8841881 312.742243,49.7915486 L312.742243,49.7915486 L291.320819,58.5323999 L291.248324,58.5500359 C289.471077,51.680807 285.431081,47.756793 278.640637,47.756793 C270.398079,47.756793 264.095334,53.9712848 264.095334,66.565606 C264.095334,79.1577227 270.398079,85.3722145 278.640637,85.3722145 C285.909993,85.3722145 290.112555,80.6369437 291.729432,72.7955293 L291.729432,72.7955293 L308.557256,79.6757807 L313.403493,81.6444012 C309.115254,95.4820617 296.654756,104.998898 277.509262,104.998898 C254.07553,104.998898 237.427847,90.1163032 237.427847,66.565606 C237.427847,43.1758374 254.07553,28.1301097 277.509262,28.1301097 Z M50.9118549,28.1294484 C70.7910944,28.1294484 78.7129132,42.0310394 78.7129132,57.2421047 L78.7129132,57.2421047 L78.7129132,103.036229 L52.528732,103.036229 L52.528732,63.6197297 C52.528732,53.6443571 48.1658002,48.4108688 40.2439815,48.4108688 C31.3555515,48.4108688 26.1841812,56.2611012 26.1841812,67.2196818 L26.1841812,67.2196818 L26.1841812,103.036229 L0,103.036229 L0,38.8367157 L26.1841812,28.1316529 L26.1841812,42.6857766 C29.7386744,34.180807 40.2439815,28.1294484 50.9118549,28.1294484 Z M347.466874,0 L347.471268,42.6857766 C351.025761,34.180807 361.531068,28.1294484 372.198942,28.1294484 C392.078181,28.1294484 400,42.0310394 400,57.2421047 L400,57.2421047 L400,103.036229 L373.815819,103.036229 L373.815819,63.6197297 C373.815819,53.6443571 369.452887,48.4108688 361.531068,48.4108688 C352.642638,48.4108688 347.471268,56.2611012 347.471268,67.2196818 L347.471268,67.2196818 L347.471268,103.036229 L321.287087,103.036229 L321.287087,10.7028583 L347.466874,0 Z M217.377034,8.07773705 L217.377034,25.925387 L242.29803,15.7361778 L242.29803,35.1953189 L217.377034,45.3845282 L217.377034,103.001398 L192.001292,103.001398 L192.001292,55.7567111 L175.19983,62.6281446 L175.19983,43.1690034 L192.001292,36.2997745 L192.001292,18.454329 L217.377034,8.07773705 Z M127.551167,47.1031581 C118.337604,47.1031581 113.166234,54.9533905 113.166234,66.5645037 C113.166234,78.1778214 118.337604,86.0280539 127.551167,86.0280539 C136.76473,86.0280539 141.9361,78.1778214 141.9361,66.5645037 C141.9361,54.9533905 136.76473,47.1031581 127.551167,47.1031581 Z" id="Combined-Shape-Copy"/>
        </g>
    </g>
</svg>